<svg height="512" viewBox="0 0 60 42" width="512" xmlns="http://www.w3.org/2000/svg"><g id="Page-1" fill="none" fill-rule="evenodd"><g id="020---Pickup-Truck" fill="rgb(0,0,0)" fill-rule="nonzero"><path id="Shape" d="m58.59 17.564-5.8-3.622c-.6118815-.3817315-1.0653524-.9715632-1.277-1.661l-3.123-10.164c-.383726-1.26149531-1.5494434-2.12196385-2.868-2.117h-10.522c-1.6568542 0-3 1.34314575-3 3v8h-29c-1.65685425 0-3 1.3431458-3 3v18c0 1.6568542 1.34314575 3 3 3h3c.00000008 3.8659932 3.13400681 6.9999999 7 6.9999999 3.8659932 0 6.9999999-3.1340067 7-6.9999999h19c0 3.8659932 3.1340068 7 7 7s7-3.1340068 7-7h4c1.6568542 0 3-1.3431458 3-3v-11.892c.0032752-1.0352148-.5304057-1.9981114-1.41-2.544zm-12.111-14.858 3.126 10.163c.1295349.3976864.3082525.7776294.532 1.131h-8.137c-.5522847 0-1-.4477153-1-1v-11.00000072l4.522.00000072c.4394793-.0005249.8277933.28594288.957.706zm-43.479 10.294h29v2h-8c-.5522847 0-1 .4477153-1 1s.4477153 1 1 1h8v12h-15.413c-2.2054592-1.3333973-4.9685408-1.3333973-7.174 0h-7.413v-12h1c.55228475 0 1-.4477153 1-1s-.44771525-1-1-1h-1v-1c0-.5522847.44771525-1 1-1zm0 20c-.55228475 0-1-.4477153-1-1v-1h5.264c-.42632472.6107637-.75180176 1.2860273-.964 2zm10 7c-2.7614237 0-5-2.2385763-5-5s2.2385763-5 5-5 5 2.2385763 5 5c-.0033061 2.7600532-2.2399468 4.9966939-5 5zm6.7-7c-.2137437-.7142833-.5409172-1.389564-.969-2h13.269v2zm26.3 7c-2.7614237 0-5-2.2385763-5-5s2.2385763-5 5-5 5 2.2385763 5 5c-.0033061 2.7600532-2.2399468 4.9966939-5 5zm11-7h-4.3c-.8935021-2.952905-3.6148754-4.9726865-6.7-4.9726865s-5.8064979 2.0197815-6.7 4.9726865h-5.3v-30c0-.55228475.4477153-1 1-1h4v11c0 1.6568542 1.3431458 3 3 3h10.313l5.217 3.261c.2930879.1815918.4710029.5022173.47.847v.892h-3c-.5522847 0-1 .4477153-1 1s.4477153 1 1 1h3v9c0 .5522847-.4477153 1-1 1z"/><path id="Shape" d="m46 32c-1.6568542 0-3 1.3431458-3 3s1.3431458 3 3 3 3-1.3431458 3-3-1.3431458-3-3-3zm0 4c-.5522847 0-1-.4477153-1-1s.4477153-1 1-1 1 .4477153 1 1-.4477153 1-1 1z"/><path id="Shape" d="m13 32c-1.6568542 0-3 1.3431458-3 3s1.3431458 3 3 3 3-1.3431458 3-3-1.3431458-3-3-3zm0 4c-.5522847 0-1-.4477153-1-1s.4477153-1 1-1 1 .4477153 1 1-.4477153 1-1 1z"/></g></g></svg>